<?xml version="1.0" encoding="utf-8"?>
<!-- Generator: Adobe Illustrator 25.4.1, SVG Export Plug-In . SVG Version: 6.00 Build 0)  -->
<svg version="1.1"
	 id="svg2985" xmlns:cc="http://creativecommons.org/ns#" xmlns:dc="http://purl.org/dc/elements/1.1/" xmlns:rdf="http://www.w3.org/1999/02/22-rdf-syntax-ns#" xmlns:svg="http://www.w3.org/2000/svg"
	 xmlns="http://www.w3.org/2000/svg" xmlns:xlink="http://www.w3.org/1999/xlink" x="0px" y="0px" viewBox="-192 293.9 210 255"
	 style="enable-background:new -192 293.9 210 255;" xml:space="preserve">
<style type="text/css">
	.st0{enable-background:new    ;}
	.st1{fill:#CDDACD;}
	.st2{fill:#005F00;}
	.st3{opacity:0.4;fill:#FFFFFF;}
	.st4{fill:#FFFFFF;}
	.st5{display:none;enable-background:new    ;}
	.st6{display:inline;}
	.st7{fill:#2A3B92;}
	.st8{fill:#038249;}
	.st9{display:inline;fill:#BF3718;}
	.st10{display:inline;enable-background:new    ;}
</style>
<g id="g4146" transform="translate(39.768324,209.71794)">
</g>
<g id="g4630" transform="matrix(1.0005937,0,0,1,-1.3758072,203.40625)" class="st0">
	<g id="g3062">
		<path id="rect4031" d="M-131.2,90.5l46.1,0.2l68.4-0.2c22.9-0.1,36.1,15.9,36.1,40.4v154.6c0,12.3-14,27.7-21.4,35.7
			s-22.1,24.3-33.6,24.3h-113c-22.9,0-41.3-5.6-41.3-30.2l-0.3-162.3c0-6.4,17.3-24.3,24.8-32.4C-158,112.6-142.7,90.4-131.2,90.5
			L-131.2,90.5z"/>
		<path id="rect3767" class="st1" d="M-122.4,103.2h104.5c13.8,0,24.8,11.1,24.9,24.9l0.9,152.4c0,2-12.6,32-25.8,32h-104.5
			c-13.8,0-24.9-11.1-24.9-24.9V128.1C-147.3,114.3-136.2,103.2-122.4,103.2L-122.4,103.2z"/>
		<path id="rect3861" class="st2" d="M-137.4,118.1h99.6c13.7,0,24.9,11.2,24.9,24.9v159.5c0,13.8-11.1,24.9-24.9,24.9h-99.6
			c-13.7,0-24.9-11.2-24.9-24.9V143.1C-162.3,129.3-151.1,118.1-137.4,118.1z"/>
		<path id="rect3765" class="st2" d="M-147.3,133.1h104.5c13.7,0,24.9,11.2,24.9,24.9v149.5c0,13.8-11.1,24.9-24.9,24.9h-104.5
			c-13.7,0-24.9-11.2-24.9-24.9V158C-172.2,144.3-161.1,133.1-147.3,133.1z"/>
		<path id="rect3765_00000045591414189239012850000008536205657367611308_" class="st3" d="M-147.3,133.1h104.5
			c13.7,0,24.9,11.2,24.9,24.9v149.5c0,13.8-11.1,24.9-24.9,24.9h-104.5c-13.7,0-24.9-11.2-24.9-24.9V158
			C-172.2,144.3-161.1,133.1-147.3,133.1z"/>
		<path id="rect3008" class="st2" d="M-157.3,143.1h109.5c11,0,19.9,8.9,19.9,19.9v149.5c0,11-8.9,19.9-19.9,19.9h-109.5
			c-11,0-19.9-8.9-19.9-19.9V163C-177.2,152-168.3,143.1-157.3,143.1z"/>
		<g id="path3936">
		</g>
		<path id="path3932" class="st4" d="M2.2,115.7c0,1.5-1.3,2.8-2.8,2.8s-2.8-1.3-2.8-2.8s1.3-2.8,2.8-2.8S2.2,114.1,2.2,115.7z"/>
		<path id="path3882" class="st4" d="M-15,137.6c0,4.8-3.9,8.7-8.7,8.7c-4.8,0-8.7-3.9-8.7-8.7c0,0,0,0,0,0c0-4.8,3.9-8.7,8.7-8.7
			C-19,128.9-15,132.8-15,137.6C-15,137.6-15,137.6-15,137.6z"/>
		<g id="g3661" transform="matrix(4.9632705,0,0,4.981685,220.28538,-219.44637)" class="st5">
			<g id="g3889" transform="matrix(0.74428571,0,0,0.74428571,-33.497498,1.8045605)" class="st6">
				<path id="path4301" class="st7" d="M-27.6,108.8c0,3.7-3,6.7-6.7,6.7s-6.7-3-6.7-6.7s3-6.7,6.7-6.7S-27.6,105.1-27.6,108.8z"/>
				<g id="g3847" transform="matrix(0.70710678,-0.70710678,0.70710678,0.70710678,-15.719501,21.112266)">
					<path id="path3849" class="st4" d="M-75.5,48.8c0,0-1.2,1-2.7,1c-1.5,0-2.7-1-2.7-1s1.2-1,2.7-1
						C-76.7,47.8-75.5,48.8-75.5,48.8z"/>
					<path id="path3851" class="st4" d="M-74.8,48.8c0,0,1.2-1,2.7-1c1.5,0,2.7,1,2.7,1s-1.2,1-2.7,1
						C-73.6,49.8-74.8,48.8-74.8,48.8z"/>
					<path id="path3853" class="st4" d="M-75.2,49.2c0,0,1,1.2,1,2.7s-1,2.7-1,2.7s-1-1.2-1-2.7S-75.2,49.2-75.2,49.2z"/>
					<path id="path3855" class="st4" d="M-75.2,48.5c0,0-1-1.2-1-2.7s1-2.7,1-2.7s1,1.2,1,2.7S-75.2,48.5-75.2,48.5z"/>
				</g>
			</g>
			<g id="g5324" transform="matrix(0.74428571,0,0,0.74428571,-45.497498,1.8045605)" class="st6">
				<path id="path5326" class="st8" d="M-27.6,108.8c0,3.7-3,6.7-6.7,6.7s-6.7-3-6.7-6.7s3-6.7,6.7-6.7S-27.6,105.1-27.6,108.8z"/>
				<g id="g5328" transform="matrix(0.70710678,-0.70710678,0.70710678,0.70710678,-15.719501,21.112266)">
					<path id="path5330" class="st4" d="M-75.5,48.8c0,0-1.2,1-2.7,1c-1.5,0-2.7-1-2.7-1s1.2-1,2.7-1
						C-76.7,47.8-75.5,48.8-75.5,48.8z"/>
					<path id="path5332" class="st4" d="M-74.8,48.8c0,0,1.2-1,2.7-1c1.5,0,2.7,1,2.7,1s-1.2,1-2.7,1
						C-73.6,49.8-74.8,48.8-74.8,48.8z"/>
					<path id="path5334" class="st4" d="M-75.2,49.2c0,0,1,1.2,1,2.7s-1,2.7-1,2.7s-1-1.2-1-2.7S-75.2,49.2-75.2,49.2z"/>
					<path id="path5336" class="st4" d="M-75.2,48.5c0,0-1-1.2-1-2.7c0-1.5,1-2.7,1-2.7s1,1.2,1,2.7S-75.2,48.5-75.2,48.5z"/>
				</g>
			</g>
			<g id="g5340" transform="matrix(0.74428571,0,0,0.74428571,-45.497498,19.804561)" class="st6">
				<path id="path5342" class="st7" d="M-27.6,108.8c0,3.7-3,6.7-6.7,6.7s-6.7-3-6.7-6.7s3-6.7,6.7-6.7S-27.6,105.1-27.6,108.8z"/>
				<g id="g5344" transform="matrix(0.70710678,-0.70710678,0.70710678,0.70710678,-15.719501,21.112266)">
					<path id="path5346" class="st4" d="M-75.5,48.8c0,0-1.2,1-2.7,1c-1.5,0-2.7-1-2.7-1s1.2-1,2.7-1
						C-76.7,47.8-75.5,48.8-75.5,48.8z"/>
					<path id="path5348" class="st4" d="M-74.8,48.8c0,0,1.2-1,2.7-1s2.7,1,2.7,1s-1.2,1-2.7,1C-73.6,49.8-74.8,48.8-74.8,48.8z"/>
					<path id="path5350" class="st4" d="M-75.2,49.2c0,0,1,1.2,1,2.7c0,1.5-1,2.7-1,2.7s-1-1.2-1-2.7
						C-76.2,50.4-75.2,49.2-75.2,49.2z"/>
					<path id="path5352" class="st4" d="M-75.2,48.5c0,0-1-1.2-1-2.7c0-1.5,1-2.7,1-2.7s1,1.2,1,2.7C-74.2,47.3-75.2,48.5-75.2,48.5
						z"/>
				</g>
			</g>
			<g id="g5354" transform="matrix(0.74428571,0,0,0.74428571,-33.497498,19.804561)" class="st6">
				<path id="path5356" class="st8" d="M-27.6,108.8c0,3.7-3,6.7-6.7,6.7s-6.7-3-6.7-6.7s3-6.7,6.7-6.7S-27.6,105.1-27.6,108.8z"/>
				<g id="g5358" transform="matrix(0.70710678,-0.70710678,0.70710678,0.70710678,-15.719501,21.112266)">
					<path id="path5360" class="st4" d="M-75.5,48.8c0,0-1.2,1-2.7,1c-1.5,0-2.7-1-2.7-1s1.2-1,2.7-1
						C-76.7,47.8-75.5,48.8-75.5,48.8z"/>
					<path id="path5362" class="st4" d="M-74.8,48.8c0,0,1.2-1,2.7-1c1.5,0,2.7,1,2.7,1s-1.2,1-2.7,1
						C-73.6,49.8-74.8,48.8-74.8,48.8z"/>
					<path id="path5364" class="st4" d="M-75.2,49.2c0,0,1,1.2,1,2.7s-1,2.7-1,2.7s-1-1.2-1-2.7S-75.2,49.2-75.2,49.2z"/>
					<path id="path5366" class="st4" d="M-75.2,48.5c0,0-1-1.2-1-2.7c0-1.5,1-2.7,1-2.7s1,1.2,1,2.7S-75.2,48.5-75.2,48.5z"/>
				</g>
			</g>
		</g>
		<g id="g3081" transform="translate(-1.0827631e-8,-4.1839844e-6)" class="st5">
			<path id="path5370" class="st9" d="M-77.7,237.8c0,13.7-11.1,24.9-24.9,24.9s-24.9-11.1-24.9-24.9s11.1-24.9,24.9-24.9
				S-77.7,224-77.7,237.8z"/>
			<g id="g5372" transform="matrix(2.618197,-2.6167928,2.618197,2.6167928,-34.107366,-87.281743)" class="st10">
				<path id="path5374" class="st4" d="M-75.5,49c0,0-1.2,1-2.7,1s-2.7-1-2.7-1s1.2-1,2.7-1S-75.5,49-75.5,49z"/>
				<path id="path5376" class="st4" d="M-74.8,49c0,0,1.2-1,2.7-1s2.7,1,2.7,1s-1.2,1-2.7,1S-74.8,49-74.8,49z"/>
				<path id="path5378" class="st4" d="M-75.2,49.4c0,0,1,1.2,1,2.7s-1,2.7-1,2.7s-1-1.2-1-2.7C-76.2,50.6-75.2,49.4-75.2,49.4z"/>
				<path id="path5380" class="st4" d="M-75.2,48.7c0,0-1-1.2-1-2.7c0-1.5,1-2.7,1-2.7s1,1.2,1,2.7C-74.2,47.5-75.2,48.7-75.2,48.7z
					"/>
			</g>
		</g>
	</g>
</g>
</svg>
